<mxfile host="Electron" modified="2024-07-11T22:12:44.146Z" agent="Mozilla/5.0 (Macintosh; Intel Mac OS X 10_15_7) AppleWebKit/537.36 (KHTML, like Gecko) draw.io/24.6.4 Chrome/124.0.6367.207 Electron/30.0.6 Safari/537.36" etag="jAWJLoxHuUzFSb8DetaL" version="24.6.4" type="device">
  <diagram name="Горизонтальное масштабирование с API Gateway и Consul" id="-H_mtQnk-PTXWXPvYvuk">
    <mxGraphModel dx="954" dy="674" grid="1" gridSize="10" guides="1" tooltips="1" connect="1" arrows="1" fold="1" page="1" pageScale="1" pageWidth="1400" pageHeight="1000" math="0" shadow="0">
      <root>
        <mxCell id="0" />
        <mxCell id="1" parent="0" />
        
        <!-- Client -->
        <mxCell id="client" value="Клиент" style="rounded=1;whiteSpace=wrap;html=1;fillColor=#f5f5f5;strokeColor=#666666;" vertex="1" parent="1">
          <mxGeometry x="50" y="400" width="100" height="60" as="geometry" />
        </mxCell>
        
        <!-- API Gateway -->
        <mxCell id="api-gateway" value="API Gateway&#xa;(Nginx/HAProxy)" style="rounded=1;whiteSpace=wrap;html=1;fillColor=#dae8fc;strokeColor=#6c8ebf;fontSize=12;" vertex="1" parent="1">
          <mxGeometry x="200" y="400" width="120" height="60" as="geometry" />
        </mxCell>
        
        <!-- Consul Server 1 -->
        <mxCell id="consul1" value="Consul Server 1" style="rounded=1;whiteSpace=wrap;html=1;fillColor=#e1d5e7;strokeColor=#9673a6;fontSize=11;" vertex="1" parent="1">
          <mxGeometry x="400" y="200" width="100" height="50" as="geometry" />
        </mxCell>
        
        <!-- Consul Server 2 -->
        <mxCell id="consul2" value="Consul Server 2" style="rounded=1;whiteSpace=wrap;html=1;fillColor=#e1d5e7;strokeColor=#9673a6;fontSize=11;" vertex="1" parent="1">
          <mxGeometry x="520" y="200" width="100" height="50" as="geometry" />
        </mxCell>
        
        <!-- Consul Server 3 -->
        <mxCell id="consul3" value="Consul Server 3" style="rounded=1;whiteSpace=wrap;html=1;fillColor=#e1d5e7;strokeColor=#9673a6;fontSize=11;" vertex="1" parent="1">
          <mxGeometry x="640" y="200" width="100" height="50" as="geometry" />
        </mxCell>
        
        <!-- API Instance 1 -->
        <mxCell id="api-instance1" value="API Instance 1&#xa;(pymongo-api)" style="rounded=1;whiteSpace=wrap;html=1;fillColor=#d5e8d4;strokeColor=#82b366;fontSize=11;" vertex="1" parent="1">
          <mxGeometry x="400" y="400" width="100" height="60" as="geometry" />
        </mxCell>
        
        <!-- API Instance 2 -->
        <mxCell id="api-instance2" value="API Instance 2&#xa;(pymongo-api)" style="rounded=1;whiteSpace=wrap;html=1;fillColor=#d5e8d4;strokeColor=#82b366;fontSize=11;" vertex="1" parent="1">
          <mxGeometry x="520" y="400" width="100" height="60" as="geometry" />
        </mxCell>
        
        <!-- API Instance 3 -->
        <mxCell id="api-instance3" value="API Instance 3&#xa;(pymongo-api)" style="rounded=1;whiteSpace=wrap;html=1;fillColor=#d5e8d4;strokeColor=#82b366;fontSize=11;" vertex="1" parent="1">
          <mxGeometry x="640" y="400" width="100" height="60" as="geometry" />
        </mxCell>
        
        <!-- Redis Cache -->
        <mxCell id="redis-cache" value="Redis Cache" style="shape=cylinder3;whiteSpace=wrap;html=1;boundedLbl=1;backgroundOutline=1;size=15;fillColor=#ffe6cc;strokeColor=#d79b00;" vertex="1" parent="1">
          <mxGeometry x="800" y="400" width="80" height="60" as="geometry" />
        </mxCell>
        
        <!-- Mongos Router -->
        <mxCell id="mongos-router" value="Mongos Router" style="rounded=1;whiteSpace=wrap;html=1;fillColor=#fff2cc;strokeColor=#d6b656;" vertex="1" parent="1">
          <mxGeometry x="400" y="600" width="120" height="60" as="geometry" />
        </mxCell>
        
        <!-- Config Server -->
        <mxCell id="config-server" value="Config Server" style="shape=cylinder3;whiteSpace=wrap;html=1;boundedLbl=1;backgroundOutline=1;size=15;fillColor=#e1d5e7;strokeColor=#9673a6;" vertex="1" parent="1">
          <mxGeometry x="600" y="600" width="80" height="60" as="geometry" />
        </mxCell>
        
        <!-- Shard 1 Primary -->
        <mxCell id="shard1-primary" value="Shard 1 Primary" style="shape=cylinder3;whiteSpace=wrap;html=1;boundedLbl=1;backgroundOutline=1;size=15;fillColor=#f8cecc;strokeColor=#b85450;" vertex="1" parent="1">
          <mxGeometry x="160" y="680" width="80" height="60" as="geometry" />
        </mxCell>
        
        <!-- Shard 1 Secondary 1 -->
        <mxCell id="shard1-secondary1" value="Shard 1 Secondary 1" style="shape=cylinder3;whiteSpace=wrap;html=1;boundedLbl=1;backgroundOutline=1;size=15;fillColor=#f8cecc;strokeColor=#b85450;" vertex="1" parent="1">
          <mxGeometry x="160" y="760" width="80" height="60" as="geometry" />
        </mxCell>
        
        <!-- Shard 1 Secondary 2 -->
        <mxCell id="shard1-secondary2" value="Shard 1 Secondary 2" style="shape=cylinder3;whiteSpace=wrap;html=1;boundedLbl=1;backgroundOutline=1;size=15;fillColor=#f8cecc;strokeColor=#b85450;" vertex="1" parent="1">
          <mxGeometry x="160" y="840" width="80" height="60" as="geometry" />
        </mxCell>
        
        <!-- Shard 2 Primary -->
        <mxCell id="shard2-primary" value="Shard 2 Primary" style="shape=cylinder3;whiteSpace=wrap;html=1;boundedLbl=1;backgroundOutline=1;size=15;fillColor=#d5e8d4;strokeColor=#82b366;" vertex="1" parent="1">
          <mxGeometry x="760" y="680" width="80" height="60" as="geometry" />
        </mxCell>
        
        <!-- Shard 2 Secondary 1 -->
        <mxCell id="shard2-secondary1" value="Shard 2 Secondary 1" style="shape=cylinder3;whiteSpace=wrap;html=1;boundedLbl=1;backgroundOutline=1;size=15;fillColor=#d5e8d4;strokeColor=#82b366;" vertex="1" parent="1">
          <mxGeometry x="760" y="760" width="80" height="60" as="geometry" />
        </mxCell>
        
        <!-- Shard 2 Secondary 2 -->
        <mxCell id="shard2-secondary2" value="Shard 2 Secondary 2" style="shape=cylinder3;whiteSpace=wrap;html=1;boundedLbl=1;backgroundOutline=1;size=15;fillColor=#d5e8d4;strokeColor=#82b366;" vertex="1" parent="1">
          <mxGeometry x="760" y="840" width="80" height="60" as="geometry" />
        </mxCell>
        
        <!-- Client to API Gateway -->
        <mxCell id="client-to-gateway" style="edgeStyle=orthogonalEdgeStyle;rounded=0;orthogonalLoop=1;jettySize=auto;html=1;exitX=1;exitY=0.5;exitDx=0;exitDy=0;entryX=0;entryY=0.5;entryDx=0;entryDy=0;strokeWidth=2;" edge="1" parent="1" source="client" target="api-gateway">
          <mxGeometry relative="1" as="geometry" />
        </mxCell>
        
        <!-- API Gateway to API Instances -->
        <mxCell id="gateway-to-api1" style="edgeStyle=orthogonalEdgeStyle;rounded=0;orthogonalLoop=1;jettySize=auto;html=1;exitX=1;exitY=0.5;exitDx=0;exitDy=0;entryX=0;entryY=0.5;entryDx=0;entryDy=0;strokeColor=#82b366;strokeWidth=2;" edge="1" parent="1" source="api-gateway" target="api-instance1">
          <mxGeometry relative="1" as="geometry" />
        </mxCell>
        
        <mxCell id="gateway-to-api2" style="edgeStyle=orthogonalEdgeStyle;rounded=0;orthogonalLoop=1;jettySize=auto;html=1;exitX=1;exitY=0.5;exitDx=0;exitDy=0;entryX=0;entryY=0.5;entryDx=0;entryDy=0;strokeColor=#82b366;strokeWidth=2;" edge="1" parent="1" source="api-gateway" target="api-instance2">
          <mxGeometry relative="1" as="geometry">
            <Array as="points">
              <mxPoint x="380" y="430" />
              <mxPoint x="380" y="430" />
            </Array>
          </mxGeometry>
        </mxCell>
        
        <mxCell id="gateway-to-api3" style="edgeStyle=orthogonalEdgeStyle;rounded=0;orthogonalLoop=1;jettySize=auto;html=1;exitX=1;exitY=0.5;exitDx=0;exitDy=0;entryX=0;entryY=0.5;entryDx=0;entryDy=0;strokeColor=#82b366;strokeWidth=2;" edge="1" parent="1" source="api-gateway" target="api-instance3">
          <mxGeometry relative="1" as="geometry">
            <Array as="points">
              <mxPoint x="380" y="430" />
              <mxPoint x="380" y="430" />
            </Array>
          </mxGeometry>
        </mxCell>
        
        <!-- API Instances to Redis -->
        <mxCell id="api1-to-redis" style="edgeStyle=orthogonalEdgeStyle;rounded=0;orthogonalLoop=1;jettySize=auto;html=1;exitX=1;exitY=0.5;exitDx=0;exitDy=0;entryX=0;entryY=0.5;entryDx=0;entryDy=0;strokeColor=#d79b00;strokeWidth=2;" edge="1" parent="1" source="api-instance1" target="redis-cache">
          <mxGeometry relative="1" as="geometry" />
        </mxCell>
        
        <mxCell id="api2-to-redis" style="edgeStyle=orthogonalEdgeStyle;rounded=0;orthogonalLoop=1;jettySize=auto;html=1;exitX=1;exitY=0.5;exitDx=0;exitDy=0;entryX=0;entryY=0.5;entryDx=0;entryDy=0;strokeColor=#d79b00;strokeWidth=2;" edge="1" parent="1" source="api-instance2" target="redis-cache">
          <mxGeometry relative="1" as="geometry" />
        </mxCell>
        
        <mxCell id="api3-to-redis" style="edgeStyle=orthogonalEdgeStyle;rounded=0;orthogonalLoop=1;jettySize=auto;html=1;exitX=1;exitY=0.5;exitDx=0;exitDy=0;entryX=0;entryY=0.5;entryDx=0;entryDy=0;strokeColor=#d79b00;strokeWidth=2;" edge="1" parent="1" source="api-instance3" target="redis-cache">
          <mxGeometry relative="1" as="geometry" />
        </mxCell>
        
        <!-- API Instances to Mongos -->
        <mxCell id="api1-to-mongos" style="edgeStyle=orthogonalEdgeStyle;rounded=0;orthogonalLoop=1;jettySize=auto;html=1;exitX=0.5;exitY=1;exitDx=0;exitDy=0;entryX=0.5;entryY=0;entryDx=0;entryDy=0;" edge="1" parent="1" source="api-instance1" target="mongos-router">
          <mxGeometry relative="1" as="geometry" />
        </mxCell>
        
        <mxCell id="api2-to-mongos" style="edgeStyle=orthogonalEdgeStyle;rounded=0;orthogonalLoop=1;jettySize=auto;html=1;exitX=0.5;exitY=1;exitDx=0;exitDy=0;entryX=0.5;entryY=0;entryDx=0;entryDy=0;" edge="1" parent="1" source="api-instance2" target="mongos-router">
          <mxGeometry relative="1" as="geometry" />
        </mxCell>
        
        <mxCell id="api3-to-mongos" style="edgeStyle=orthogonalEdgeStyle;rounded=0;orthogonalLoop=1;jettySize=auto;html=1;exitX=0.5;exitY=1;exitDx=0;exitDy=0;entryX=0.5;entryY=0;entryDx=0;entryDy=0;" edge="1" parent="1" source="api-instance3" target="mongos-router">
          <mxGeometry relative="1" as="geometry" />
        </mxCell>
        
        <!-- Mongos to Config -->
        <mxCell id="mongos-to-config" style="edgeStyle=orthogonalEdgeStyle;rounded=0;orthogonalLoop=1;jettySize=auto;html=1;exitX=1;exitY=0.5;exitDx=0;exitDy=0;entryX=0;entryY=0.5;entryDx=0;entryDy=0;" edge="1" parent="1" source="mongos-router" target="config-server">
          <mxGeometry relative="1" as="geometry" />
        </mxCell>
        
        <!-- Mongos to Shards -->
        <mxCell id="mongos-to-shard1" style="edgeStyle=orthogonalEdgeStyle;rounded=0;orthogonalLoop=1;jettySize=auto;html=1;exitX=0;exitY=0.5;exitDx=0;exitDy=0;entryX=1;entryY=0.5;entryDx=0;entryDy=0;" edge="1" parent="1" source="mongos-router" target="shard1-primary">
          <mxGeometry relative="1" as="geometry" />
        </mxCell>
        
        <mxCell id="mongos-to-shard2" style="edgeStyle=orthogonalEdgeStyle;rounded=0;orthogonalLoop=1;jettySize=auto;html=1;exitX=1;exitY=0.5;exitDx=0;exitDy=0;entryX=0;entryY=0.5;entryDx=0;entryDy=0;" edge="1" parent="1" source="mongos-router" target="shard2-primary">
          <mxGeometry relative="1" as="geometry" />
        </mxCell>
        
        <!-- Replica Set Connections -->
        <mxCell id="shard1-replica-1" style="edgeStyle=orthogonalEdgeStyle;rounded=0;orthogonalLoop=1;jettySize=auto;html=1;exitX=0.5;exitY=1;exitDx=0;exitDy=0;entryX=0.5;entryY=0;entryDx=0;entryDy=0;strokeColor=#b85450;" edge="1" parent="1" source="shard1-primary" target="shard1-secondary1">
          <mxGeometry relative="1" as="geometry" />
        </mxCell>
        
        <mxCell id="shard1-replica-2" style="edgeStyle=orthogonalEdgeStyle;rounded=0;orthogonalLoop=1;jettySize=auto;html=1;exitX=0.5;exitY=1;exitDx=0;exitDy=0;entryX=0.5;entryY=0;entryDx=0;entryDy=0;strokeColor=#b85450;" edge="1" parent="1" source="shard1-secondary1" target="shard1-secondary2">
          <mxGeometry relative="1" as="geometry" />
        </mxCell>
        
        <mxCell id="shard2-replica-1" style="edgeStyle=orthogonalEdgeStyle;rounded=0;orthogonalLoop=1;jettySize=auto;html=1;exitX=0.5;exitY=1;exitDx=0;exitDy=0;entryX=0.5;entryY=0;entryDx=0;entryDy=0;strokeColor=#82b366;" edge="1" parent="1" source="shard2-primary" target="shard2-secondary1">
          <mxGeometry relative="1" as="geometry" />
        </mxCell>
        
        <mxCell id="shard2-replica-2" style="edgeStyle=orthogonalEdgeStyle;rounded=0;orthogonalLoop=1;jettySize=auto;html=1;exitX=0.5;exitY=1;exitDx=0;exitDy=0;entryX=0.5;entryY=0;entryDx=0;entryDy=0;strokeColor=#82b366;" edge="1" parent="1" source="shard2-secondary1" target="shard2-secondary2">
          <mxGeometry relative="1" as="geometry" />
        </mxCell>
        
        <!-- Consul Cluster Connections -->
        <mxCell id="consul1-to-2" style="edgeStyle=orthogonalEdgeStyle;rounded=0;orthogonalLoop=1;jettySize=auto;html=1;exitX=1;exitY=0.5;exitDx=0;exitDy=0;entryX=0;entryY=0.5;entryDx=0;entryDy=0;strokeColor=#9673a6;strokeWidth=2;" edge="1" parent="1" source="consul1" target="consul2">
          <mxGeometry relative="1" as="geometry" />
        </mxCell>
        
        <mxCell id="consul2-to-3" style="edgeStyle=orthogonalEdgeStyle;rounded=0;orthogonalLoop=1;jettySize=auto;html=1;exitX=1;exitY=0.5;exitDx=0;exitDy=0;entryX=0;entryY=0.5;entryDx=0;entryDy=0;strokeColor=#9673a6;strokeWidth=2;" edge="1" parent="1" source="consul2" target="consul3">
          <mxGeometry relative="1" as="geometry" />
        </mxCell>
        
        <!-- API Gateway to Consul -->
        <mxCell id="gateway-to-consul" style="edgeStyle=orthogonalEdgeStyle;rounded=0;orthogonalLoop=1;jettySize=auto;html=1;exitX=0.5;exitY=0;exitDx=0;exitDy=0;entryX=0.5;entryY=1;entryDx=0;entryDy=0;strokeColor=#9673a6;strokeWidth=2;dashed=1;" edge="1" parent="1" source="api-gateway" target="consul1">
          <mxGeometry relative="1" as="geometry">
            <Array as="points">
              <mxPoint x="260" y="300" />
              <mxPoint x="450" y="300" />
            </Array>
          </mxGeometry>
        </mxCell>
        
        <!-- API Instances to Consul -->
        <mxCell id="api1-to-consul" style="edgeStyle=orthogonalEdgeStyle;rounded=0;orthogonalLoop=1;jettySize=auto;html=1;exitX=0.5;exitY=0;exitDx=0;exitDy=0;entryX=0.5;entryY=1;entryDx=0;entryDy=0;strokeColor=#9673a6;strokeWidth=2;dashed=1;" edge="1" parent="1" source="api-instance1" target="consul1">
          <mxGeometry relative="1" as="geometry" />
        </mxCell>
        
        <mxCell id="api2-to-consul" style="edgeStyle=orthogonalEdgeStyle;rounded=0;orthogonalLoop=1;jettySize=auto;html=1;exitX=0.5;exitY=0;exitDx=0;exitDy=0;entryX=0.5;entryY=1;entryDx=0;entryDy=0;strokeColor=#9673a6;strokeWidth=2;dashed=1;" edge="1" parent="1" source="api-instance2" target="consul2">
          <mxGeometry relative="1" as="geometry" />
        </mxCell>
        
        <mxCell id="api3-to-consul" style="edgeStyle=orthogonalEdgeStyle;rounded=0;orthogonalLoop=1;jettySize=auto;html=1;exitX=0.5;exitY=0;exitDx=0;exitDy=0;entryX=0.5;entryY=1;entryDx=0;entryDy=0;strokeColor=#9673a6;strokeWidth=2;dashed=1;" edge="1" parent="1" source="api-instance3" target="consul3">
          <mxGeometry relative="1" as="geometry" />
        </mxCell>
        
        <!-- Title -->
        <mxCell id="title" value="Горизонтальное масштабирование с API Gateway и Consul Service Discovery" style="text;html=1;strokeColor=none;fillColor=none;align=center;verticalAlign=middle;whiteSpace=wrap;rounded=0;fontSize=16;fontStyle=1;" vertex="1" parent="1">
          <mxGeometry x="300" y="120" width="600" height="30" as="geometry" />
        </mxCell>
        
        <!-- Labels -->
        <mxCell id="load-balancer-label" value="Load Balancer" style="text;html=1;strokeColor=none;fillColor=none;align=center;verticalAlign=middle;whiteSpace=wrap;rounded=0;fontSize=12;fontStyle=1;" vertex="1" parent="1">
          <mxGeometry x="200" y="480" width="120" height="20" as="geometry" />
        </mxCell>
        
        <mxCell id="service-discovery-label" value="Service Discovery" style="text;html=1;strokeColor=none;fillColor=none;align=center;verticalAlign=middle;whiteSpace=wrap;rounded=0;fontSize=12;fontStyle=1;" vertex="1" parent="1">
          <mxGeometry x="400" y="280" width="120" height="20" as="geometry" />
        </mxCell>
        
        <mxCell id="cache-label" value="Кеширование" style="text;html=1;strokeColor=none;fillColor=none;align=center;verticalAlign=middle;whiteSpace=wrap;rounded=0;fontSize=12;fontStyle=1;" vertex="1" parent="1">
          <mxGeometry x="800" y="480" width="80" height="20" as="geometry" />
        </mxCell>
        
        <mxCell id="sharding-label" value="Шардирование + Репликация" style="text;html=1;strokeColor=none;fillColor=none;align=center;verticalAlign=middle;whiteSpace=wrap;rounded=0;fontSize=12;fontStyle=1;" vertex="1" parent="1">
          <mxGeometry x="400" y="920" width="160" height="20" as="geometry" />
        </mxCell>
        
        <!-- Replica Set Labels -->
        <mxCell id="shard1-label" value="Replica Set 1" style="text;html=1;strokeColor=none;fillColor=none;align=center;verticalAlign=middle;whiteSpace=wrap;rounded=0;fontSize=10;fontStyle=1;" vertex="1" parent="1">
          <mxGeometry x="120" y="920" width="160" height="20" as="geometry" />
        </mxCell>
        
        <mxCell id="shard2-label" value="Replica Set 2" style="text;html=1;strokeColor=none;fillColor=none;align=center;verticalAlign=middle;whiteSpace=wrap;rounded=0;fontSize=10;fontStyle=1;" vertex="1" parent="1">
          <mxGeometry x="720" y="920" width="160" height="20" as="geometry" />
        </mxCell>
        
        <!-- Flow Labels -->
        <mxCell id="client-flow" value="HTTP запросы" style="text;html=1;strokeColor=none;fillColor=none;align=center;verticalAlign=middle;whiteSpace=wrap;rounded=0;fontSize=10;fontStyle=2;" vertex="1" parent="1">
          <mxGeometry x="120" y="430" width="80" height="20" as="geometry" />
        </mxCell>
        
        <mxCell id="service-discovery-flow" value="Service Discovery" style="text;html=1;strokeColor=none;fillColor=none;align=center;verticalAlign=middle;whiteSpace=wrap;rounded=0;fontSize=10;fontStyle=2;fontColor=#9673a6;" vertex="1" parent="1">
          <mxGeometry x="260" y="320" width="100" height="20" as="geometry" />
        </mxCell>
        
        <mxCell id="cache-flow" value="Кеширование" style="text;html=1;strokeColor=none;fillColor=none;align=center;verticalAlign=middle;whiteSpace=wrap;rounded=0;fontSize=10;fontStyle=2;fontColor=#d79b00;" vertex="1" parent="1">
          <mxGeometry x="720" y="430" width="80" height="20" as="geometry" />
        </mxCell>
        
      </root>
    </mxGraphModel>
  </diagram>
</mxfile> 